PathFileType	4	(X/Y/Z)	C:/Users/beibeiliu/ov580/test_trc/User3\sequence.10_training_dense_right.trc
DataRate	CameraRate	NumFrames	NumMarkers	Units	OrigDataRate	OrigDataStartFrame	OrigNumFrames
120	120	16	19	mm	120	130	155
Frame#	Time	ThumbCMC			ThumbMCP			ThumbIP			ThumbTip			IndexMCP			IndexPIP			IndexTip			MiddleMCP			MiddlePIP			MiddleTip			RingMCP			RingPIP			RingTip			PinkyMCP			PinkyPIP			PinkyTip			BackHand1			BackHand2			BackHand3	
		X0	Y0	Z0	X1	Y1	Z1	X2	Y2	Z2	X3	Y3	Z3	X4	Y4	Z4	X5	Y5	Z5	X6	Y6	Z6	X7	Y7	Z7	X8	Y8	Z8	X9	Y9	Z9	X10	Y10	Z10	X11	Y11	Z11	X12	Y12	Z12	X13	Y13	Z13	X14	Y14	Z14	X15	Y15	Z15	X16	Y16	Z16	X17	Y17	Z17	X18	Y18	Z18	
129	1.075	217.829	50.6376	-11.2407	223.61	68.7298	-32.4323	234.301	86.4138	-52.3568	240.004	100.643	-67.2414	199.147	28.0567	-85.2269	203.91	30.6181	-106.698	202.097	27.5838	-130.969	178.71	11.5447	-84.7309	169.756	8.17217	-110.256	164.424	7.9279	-142.235	159.669	7.07294	-70.1289	150.283	0.428639	-88.7359	138.592	-6.08131	-115.322	140.438	9.4502	-47.6862	120.359	1.6858	-61.3115	106.622	-6.00231	-74.036	175.384	4.18458	-25.5412	183.25	1.81756	6.42723	207.989	16.5038	-17.8461	
130	1.08333	238.032	37.0047	-2.15363	250.878	53.1798	-27.7728	261.715	64.6429	-49.7394	270.346	76.5021	-64.3582	232.945	6.13164	-73.3709	242.227	5.16953	-97.2418	241.896	-2.13464	-121.225	207.092	-12.3184	-77.0515	207.73	-17.2859	-105.176	205.764	-20.6594	-133.22	187.267	-13.2719	-66.2194	183.349	-22.1508	-88.9089	177.516	-30.5549	-114.262	165.513	-7.55195	-51.2973	151.145	-13.4656	-61.4654	139.154	-25.5026	-78.8941	198.958	-9.59431	-19.9452	194.527	-9.17622	12.3726	225.773	3.49313	-8.92122	
131	1.09167	254.32	40.0979	2.86557	263.809	55.6568	-16.7137	280.335	68.854	-41.7525	287.603	78.0222	-56.1001	270.448	6.96813	-58.5391	281.447	2.07032	-82.4301	289.712	0.0449159	-107.319	248.992	-16.4877	-62.0997	256.781	-26.0666	-93.9509	257.509	-32.9489	-124.095	227.885	-22.5908	-56.9338	231.469	-34.465	-80.3494	230.286	-44.3225	-107.627	202.714	-22.9392	-46.1615	194.032	-33.3336	-65.2571	186.843	-45.5093	-79.3772	228.416	-12.8914	-9.78171	223.192	-13.7259	16.0558	251.661	3.87645	-0.0739534	
132	1.1	255.912	64.4073	9.69447	262.326	77.5005	-15.4247	274.915	91.036	-41.7924	278.294	98.3884	-59.0658	292.52	29.4961	-50.5553	307.997	30.5266	-73.5189	322.809	34.3763	-100.079	290.109	6.87585	-51.945	302.996	-2.01749	-81.0164	310.13	-6.24595	-108.386	272.166	-10.5066	-49.5537	282.93	-18.6303	-68.5674	291.721	-25.9377	-96.4993	245.707	-20.0631	-38.8147	249.908	-34.3418	-61.5825	250.35	-43.6953	-79.0251	259.285	-3.02447	-2.00589	246.549	-1.76537	24.9961	270.59	27.9087	12.3648	
133	1.10833	239.86	80.6764	3.96616	243.358	90.5005	-26.2932	245.22	104.399	-47.9981	246.569	116.308	-68.0372	297.582	74.3299	-50.1767	309.704	81.4582	-72.6003	324.003	83.8063	-95.9222	308.711	43.7201	-49.6631	322.925	49.9665	-71.0203	338.407	46.7592	-100.25	300.945	22.1653	-42.577	317.828	18.0428	-61.0891	331.281	13.7116	-84.6965	286.043	-1.15104	-35.0476	298.62	-11.978	-53.768	306.083	-15.988	-69.7579	279.168	25.8996	-1.27019	268.252	26.1838	23.9441	270.889	59.2196	9.90524	
134	1.11667	221.982	78.4556	-4.52687	216.658	89.1283	-32.5541	211.121	107.962	-59.4061	208.555	117.407	-78.3195	277.973	97.7036	-55.0048	281.575	112.975	-75.4554	293.496	124.144	-98.5273	298.83	81.7156	-52.0664	314.276	88.9988	-74.7369	331.612	95.255	-104.205	302.744	58.2182	-44.5622	319.744	60.6782	-60.9802	337.954	66.109	-86.6247	296.172	29.9275	-34.6149	316.15	26.5488	-52.9038	330.268	22.4147	-66.1344	278.087	51.5722	-1.35534	264.047	42.3908	23.3478	258.048	72.8997	6.91427	
135	1.125	200.611	74.4894	-13.1432	188.696	80.7364	-39.9229	179.518	92.2594	-66.9825	175.015	97.3113	-85.6896	243.256	107.438	-62.0982	248.563	120.075	-84.5453	253.313	133.514	-104.956	275.687	98.2225	-60.8408	285.198	110.503	-81.7122	295.732	122.348	-106.065	287.058	79.7382	-52.3564	302.335	88.4474	-69.3062	316.149	94.1041	-87.5105	289.212	49.9273	-41.0632	310.9	50.7765	-55.0141	327.306	52.1496	-66.4635	265.987	64.6907	-11.4849	254.895	55.7107	18.533	237.599	80.7466	-4.59909	
136	1.13333	177.707	61.4531	-14.6788	168.326	61.8784	-44.2326	155.731	65.4126	-69.7784	145.604	68.5269	-89.9636	214.399	97.5639	-72.279	205.648	109.75	-94.9855	208.628	120.875	-120.866	243.006	96.9223	-71.0696	245.471	109.727	-92.2669	254.958	121.336	-120.022	260.293	80.0794	-59.1997	271.469	91.2813	-77.9071	284.553	103.348	-100.293	269.779	57.5535	-47.4262	289.134	60.1447	-62.1434	304.046	67.3128	-75.0278	245.534	70.0574	-18.4444	239.769	57.9627	12.0855	214.772	79.7673	-10.3923	
137	1.14167	155.376	47.2564	-16.7245	143.154	39.5425	-44.7719	127.288	35.9433	-70.4125	120.625	28.6578	-86.6969	179.848	73.6004	-88.1124	170.578	75.3221	-110.214	166.153	80.2162	-133.633	210.33	76.8735	-85.7639	210.196	86.4027	-114.479	213.283	91.2656	-141.459	232.318	69.1629	-74.0608	239.204	78.0312	-96.7631	247.737	84.438	-120.815	246.954	50.8966	-58.845	262.124	53.1738	-71.1966	281.391	56.4835	-85.0823	223.79	64.2268	-26.1304	215.717	64.4704	1.50068	186.543	71.4199	-21.11	
138	1.15	140.477	34.9564	-16.1001	126.733	18.9364	-36.8544	110.832	6.04429	-59.4218	98.8489	-5.28393	-73.9188	159.95	40.8224	-92.649	147.932	35.5092	-116.151	144.807	31.4325	-137.862	189.061	47.9018	-94.8247	188.576	45.4994	-123.971	193.278	43.008	-148.611	210.975	42.8909	-78.7681	221.112	46.1206	-104.546	224.738	46.3621	-130.274	229.478	33.338	-62.0161	243.094	32.6744	-76.7397	260.535	35.1599	-91.7101	202.788	54.9628	-36.6942	203.208	60.8036	-6.91085	170.349	58.6688	-24.8386	
139	1.15833	133.393	26.4461	-8.68293	119.197	4.52388	-26.4287	98.6534	-12.7212	-40.7503	89.0433	-26.1931	-50.4862	140.125	11.7782	-84.1812	130.253	-1.33029	-106.067	125.286	-10.4778	-123.947	172.014	17.8577	-90.6898	172.093	6.9504	-118.581	174.895	-3.96299	-143.433	193.444	16.2405	-77.1238	202.748	11.9773	-99.6112	209.657	3.8151	-127.902	217.727	11.6872	-57.9004	226.594	7.11459	-71.9632	243.028	3.86908	-90.4284	188.953	39.6044	-38.0595	190.941	55.3113	-11.0714	159.287	47.6916	-27.1803	
140	1.16667	122.543	27.7764	-3.67099	100.593	8.35512	-10.7625	82.6328	-8.35565	-20.2615	66.9681	-21.3846	-29.5934	124.164	-1.11554	-70.2266	113.182	-18.2303	-92.3773	100.841	-28.7481	-109.023	153.825	-1.90028	-78.6288	149.234	-18.1852	-105.246	150.803	-34.8897	-128.642	180.346	-5.09656	-70.3317	180.387	-15.6742	-91.6837	187.707	-31.0886	-115.561	197.408	-7.86252	-47.3503	206.114	-18.0703	-62.8438	219.651	-29.8417	-84.1079	181.86	26.7193	-31.262	183.253	44.3372	-12.2263	146.598	41.6132	-25.1372	
141	1.175	116.226	43.7068	3.31878	93.0317	24.4911	-7.48985	66.5681	16.4769	-16.5415	51.1615	7.14072	-20.9234	107.489	5.734	-67.0446	97.4615	-7.83149	-83.5085	84.9023	-18.9694	-100.946	140.157	-6.07715	-72.099	127.617	-20.1647	-95.2396	122.692	-38.294	-117.256	156.719	-13.4524	-65.513	159.124	-28.9801	-84.4526	156.302	-42.3485	-102.654	180.156	-20.3734	-40.6134	183.192	-37.6166	-57.7802	190.575	-51.9594	-70.2958	169.497	21.7417	-31.612	184.16	39.8391	-9.24915	148.897	42.8255	-22.8386	
142	1.18333	122.437	58.384	-1.38832	95.823	55.9619	-8.50888	69.4825	54.1715	-21.7159	52.5961	52.9211	-25.6247	108.419	23.9862	-67.842	91.3059	18.9218	-84.9447	78.5074	13.09	-104.396	128.561	2.30839	-73.2982	117.435	-9.7085	-92.2421	101.574	-25.7273	-119.197	142.2	-13.4275	-63.9493	136.092	-23.0105	-78.9604	128.356	-42.7596	-102.259	156.3	-26.5256	-39.6572	152.166	-40.605	-52.3451	155.474	-60.9809	-66.1555	167.006	18.3029	-25.2171	184.512	26.4162	-9.13805	153.289	48.9516	-23.3984	
143	1.19167	141.51	64.2693	-6.11042	118.128	74.9808	-16.1867	94.1728	86.324	-34.1873	79.2625	94.9815	-44.2553	122.844	39.7	-71.8268	106.866	39.8123	-97.4127	97.4003	34.5668	-117.413	131.207	10.9112	-74.8086	117.829	3.12611	-97.9803	100.28	-4.29434	-126.052	135.032	-6.96485	-61.0154	123.904	-22.1533	-84.6283	113.249	-30.6622	-103.176	137.868	-25.1014	-37.6525	128.105	-39.4985	-50.3855	121.624	-53.1119	-68.845	164.826	10.1224	-29.8592	182.582	15.7483	-0.588814	164.088	42.1632	-21.9904	
144	1.2	169.151	60.5445	-5.79933	153.055	78.8899	-26.642	141.784	93.7479	-47.7407	135.627	109.848	-58.9722	151.886	37.5102	-81.7032	143.694	37.3896	-106.858	140.191	41.6231	-127.548	146.454	11.9386	-78.3406	134.289	5.90742	-105.895	123.412	2.74643	-132.652	137.74	-8.53207	-66.9738	128.027	-16.715	-84.117	115.644	-26.2506	-109.779	128.348	-24.2459	-40.6091	115.504	-34.0523	-58.0903	107.864	-43.3943	-69.1887	164.419	-1.46281	-26.6785	181.538	-0.437961	4.04615	181.966	27.405	-23.0987	
